<?xml version="1.0" standalone="no"?>
<!DOCTYPE svg PUBLIC "-//W3C//DTD SVG 20010904//EN"
 "http://www.w3.org/TR/2001/REC-SVG-20010904/DTD/svg10.dtd">
<svg version="1.0" xmlns="http://www.w3.org/2000/svg"
 width="490.000000pt" height="490.000000pt" viewBox="0 0 490.000000 490.000000"
 preserveAspectRatio="xMidYMid meet">
<metadata>
Created by potrace 1.11, written by Peter Selinger 2001-2013
</metadata>
<g transform="translate(0.000000,490.000000) scale(0.100000,-0.100000)"
fill="#000000" stroke="none">
<path d="M2343 4433 c-55 -92 -164 -273 -242 -401 -77 -128 -141 -238 -141
-243 0 -5 -4 -9 -9 -9 -5 0 -11 -8 -15 -17 -3 -10 -16 -34 -28 -54 -17 -28
-338 -559 -399 -659 -5 -8 -36 -59 -69 -113 -33 -54 -60 -102 -60 -108 0 -5
-4 -9 -8 -9 -4 0 -13 -12 -19 -27 -7 -16 -60 -106 -118 -202 -59 -95 -105
-174 -103 -175 7 -6 186 -113 219 -131 19 -11 115 -67 212 -125 97 -58 204
-121 237 -140 92 -53 225 -132 443 -262 109 -65 201 -118 204 -118 3 0 53 29
112 64 58 35 122 73 141 84 39 22 669 395 715 423 17 10 39 23 50 29 11 5 61
34 110 64 50 30 111 67 138 82 26 15 47 31 47 35 0 5 -15 32 -32 62 -18 29
-38 61 -45 72 -6 11 -135 224 -285 472 -465 770 -486 806 -525 871 -21 35 -42
71 -48 80 -5 9 -84 140 -175 290 -91 150 -170 282 -176 293 -25 45 -31 40
-131 -128z"/>
<path d="M1147 2146 c8 -14 164 -237 176 -251 4 -5 83 -116 174 -245 92 -129
216 -305 277 -390 60 -85 138 -195 173 -245 35 -49 83 -117 107 -150 23 -33
109 -154 191 -270 82 -116 152 -212 157 -213 4 -2 8 -8 8 -14 0 -5 8 -20 19
-34 l18 -23 159 225 c88 123 165 232 172 242 7 9 89 125 183 257 94 132 180
253 191 269 28 39 484 680 520 731 71 101 88 127 81 123 -5 -1 -50 -28 -101
-58 -51 -30 -100 -59 -110 -65 -51 -30 -327 -192 -350 -206 -15 -9 -54 -32
-87 -51 -33 -20 -123 -72 -200 -118 -77 -46 -153 -91 -170 -100 -16 -10 -82
-49 -146 -87 -64 -38 -124 -73 -134 -77 -12 -4 -72 26 -189 95 -94 56 -209
124 -256 152 -47 27 -97 58 -112 68 -15 11 -29 19 -31 19 -3 0 -85 48 -183
106 -99 59 -197 117 -220 130 -22 12 -104 61 -182 107 -78 47 -139 80 -135 73z"/>
</g>
</svg>
